<?xml version="1.0" standalone="no"?>
<!DOCTYPE svg PUBLIC "-//W3C//DTD SVG 20010904//EN"
 "http://www.w3.org/TR/2001/REC-SVG-20010904/DTD/svg10.dtd">
<svg version="1.0" xmlns="http://www.w3.org/2000/svg"
 width="200.000000pt" height="200.000000pt" viewBox="0 0 200.000000 200.000000"
 preserveAspectRatio="xMidYMid meet">
<metadata>
Created by potrace 1.14, written by Peter Selinger 2001-2017
</metadata>
<g transform="translate(0.000000,200.000000) scale(0.100000,-0.100000)"
fill="#000000" stroke="none">
<path d="M928 1835 c-2 -2 -29 -6 -61 -10 -159 -18 -343 -113 -474 -244 -45
-46 -83 -87 -83 -92 0 -4 -6 -14 -13 -21 -20 -20 -72 -117 -95 -178 -42 -108
-54 -181 -54 -310 -1 -167 30 -286 111 -425 93 -163 242 -293 415 -364 43 -18
87 -35 97 -37 11 -2 29 -6 42 -9 29 -7 165 -20 197 -19 326 8 619 195 759 484
133 273 104 616 -73 864 -131 184 -343 318 -558 352 -44 6 -205 14 -210 9z"/>
</g>
</svg>
